<?xml version="1.0" encoding="UTF-8"?>
<svg xmlns="http://www.w3.org/2000/svg" xmlns:xlink="http://www.w3.org/1999/xlink" width="100px" height="100px" viewBox="0 0 100 22" version="1.1">
<g id="surface1">
<path style=" stroke:none;fill-rule:nonzero;fill:rgb(12.941176%,19.607843%,35.686275%);fill-opacity:1;" d="M 27.503906 7.59375 C 27.503906 6.859375 27.246094 6.488281 26.730469 6.488281 C 26.625 6.484375 26.519531 6.496094 26.414062 6.519531 C 26.277344 6.546875 26.140625 6.5625 26.003906 6.5625 C 25.875 6.566406 25.753906 6.515625 25.671875 6.421875 C 25.578125 6.328125 25.53125 6.199219 25.535156 6.070312 C 25.535156 5.722656 25.746094 5.546875 26.167969 5.546875 C 26.179688 5.546875 26.253906 5.550781 26.394531 5.5625 C 27.90625 5.660156 28.613281 5.710938 28.511719 5.710938 L 28.660156 5.710938 L 32.304688 5.605469 C 32.375 5.605469 32.636719 5.59375 33.089844 5.5625 C 33.253906 5.550781 33.398438 5.546875 33.53125 5.546875 C 34.054688 5.546875 34.316406 5.777344 34.316406 6.234375 C 34.316406 6.316406 34.300781 6.570312 34.273438 6.996094 C 34.25 7.316406 34.238281 7.609375 34.238281 7.878906 C 34.234375 8.125 34.242188 8.367188 34.265625 8.613281 C 34.292969 8.824219 34.308594 9.039062 34.316406 9.253906 C 34.316406 9.632812 34.132812 9.824219 33.769531 9.824219 C 33.40625 9.824219 33.222656 9.558594 33.222656 9.027344 L 33.222656 8.246094 C 33.222656 7.40625 33.046875 6.910156 32.695312 6.757812 C 32.433594 6.648438 31.757812 6.59375 30.667969 6.59375 C 30.246094 6.578125 29.820312 6.59375 29.398438 6.640625 C 28.964844 6.75 28.75 7.054688 28.75 7.550781 L 28.75 9.046875 C 28.75 9.445312 28.839844 9.671875 29.019531 9.734375 C 29.136719 9.757812 29.257812 9.765625 29.375 9.761719 L 29.988281 9.761719 C 30.617188 9.761719 30.933594 9.546875 30.933594 9.121094 C 30.929688 8.964844 30.917969 8.808594 30.894531 8.65625 C 30.871094 8.488281 30.859375 8.316406 30.855469 8.148438 C 30.855469 7.75 31.035156 7.550781 31.394531 7.550781 C 31.753906 7.550781 31.933594 7.765625 31.933594 8.191406 C 31.933594 8.273438 31.902344 8.582031 31.835938 9.121094 C 31.785156 9.519531 31.753906 9.925781 31.75 10.332031 C 31.75 10.53125 31.773438 10.882812 31.8125 11.390625 C 31.824219 11.472656 31.847656 11.644531 31.886719 11.914062 C 31.914062 12.089844 31.929688 12.261719 31.933594 12.4375 C 31.957031 12.585938 31.90625 12.734375 31.796875 12.84375 C 31.691406 12.949219 31.539062 12.996094 31.386719 12.976562 C 31.035156 12.976562 30.855469 12.765625 30.855469 12.347656 C 30.859375 12.1875 30.875 12.027344 30.894531 11.871094 C 30.917969 11.710938 30.929688 11.550781 30.933594 11.390625 C 30.933594 10.964844 30.644531 10.75 30.066406 10.75 L 29.386719 10.75 C 29.09375 10.75 28.914062 10.800781 28.847656 10.898438 C 28.761719 11.101562 28.726562 11.324219 28.75 11.542969 L 28.75 12.46875 C 28.75 12.628906 28.753906 12.84375 28.761719 13.113281 C 28.773438 13.441406 28.777344 13.660156 28.777344 13.769531 C 28.789062 14.167969 28.871094 14.417969 29.019531 14.515625 C 29.132812 14.585938 29.394531 14.621094 29.808594 14.621094 L 31.875 14.621094 C 32.472656 14.621094 32.878906 14.535156 33.101562 14.359375 C 33.324219 14.183594 33.4375 13.859375 33.4375 13.378906 C 33.4375 13.230469 33.429688 13.007812 33.414062 12.714844 C 33.398438 12.421875 33.390625 12.199219 33.390625 12.050781 C 33.390625 11.601562 33.570312 11.378906 33.929688 11.378906 C 34.308594 11.378906 34.5 11.605469 34.5 12.066406 C 34.5 12.246094 34.492188 12.519531 34.476562 12.886719 C 34.460938 13.253906 34.453125 13.53125 34.453125 13.710938 C 34.453125 13.847656 34.460938 14.054688 34.476562 14.328125 C 34.492188 14.605469 34.5 14.808594 34.5 14.949219 C 34.5 15.417969 34.265625 15.652344 33.800781 15.652344 C 33.691406 15.652344 33.511719 15.640625 33.269531 15.617188 C 33.148438 15.605469 32.925781 15.601562 32.601562 15.601562 C 32.671875 15.601562 32.277344 15.589844 31.417969 15.566406 C 30.558594 15.542969 29.816406 15.53125 29.1875 15.53125 C 28.238281 15.53125 27.308594 15.566406 26.398438 15.636719 C 26.351562 15.636719 26.304688 15.644531 26.261719 15.652344 L 26.171875 15.652344 C 25.746094 15.652344 25.535156 15.472656 25.535156 15.113281 C 25.535156 14.792969 25.691406 14.636719 26.003906 14.636719 C 26.054688 14.636719 26.191406 14.644531 26.414062 14.664062 C 26.515625 14.695312 26.625 14.710938 26.734375 14.710938 C 27.25 14.710938 27.507812 14.335938 27.507812 13.589844 Z M 40.25 13.515625 L 40.25 12.558594 C 40.257812 12.148438 40.441406 11.945312 40.792969 11.945312 C 41.148438 11.945312 41.324219 12.171875 41.324219 12.632812 C 41.324219 13.71875 41.183594 14.476562 40.902344 14.90625 C 40.523438 15.484375 39.894531 15.773438 39.019531 15.773438 C 38.214844 15.773438 37.644531 15.515625 37.300781 15.007812 C 37.050781 14.640625 36.925781 14.011719 36.925781 13.125 L 36.925781 9.539062 C 36.925781 9.328125 36.828125 9.222656 36.628906 9.222656 L 36.132812 9.222656 C 35.980469 9.230469 35.832031 9.171875 35.722656 9.066406 C 35.617188 8.96875 35.558594 8.828125 35.558594 8.683594 C 35.5625 8.542969 35.617188 8.410156 35.71875 8.3125 C 35.808594 8.210938 35.9375 8.148438 36.074219 8.148438 L 36.667969 8.148438 C 36.839844 8.148438 36.925781 8.054688 36.925781 7.863281 L 36.925781 6.324219 C 36.925781 5.945312 37.125 5.757812 37.515625 5.757812 C 37.882812 5.757812 38.0625 5.945312 38.0625 6.324219 L 38.0625 7.925781 C 38.0625 8.074219 38.15625 8.148438 38.335938 8.148438 L 39.988281 8.148438 C 40.375 8.148438 40.566406 8.324219 40.566406 8.671875 C 40.566406 9.039062 40.359375 9.226562 39.945312 9.226562 L 38.277344 9.226562 C 38.132812 9.226562 38.0625 9.328125 38.0625 9.539062 L 38.0625 13.214844 C 38.0625 14.261719 38.417969 14.785156 39.125 14.785156 C 39.84375 14.785156 40.21875 14.363281 40.25 13.515625 Z M 44.464844 5.9375 L 44.402344 8.851562 C 44.726562 8.527344 45.101562 8.261719 45.515625 8.066406 C 45.890625 7.914062 46.296875 7.839844 46.703125 7.847656 C 47.574219 7.847656 48.273438 8.09375 48.800781 8.582031 C 49.332031 9.082031 49.621094 9.785156 49.59375 10.507812 L 49.59375 13.007812 C 49.59375 13.59375 49.597656 13.917969 49.605469 13.976562 C 49.648438 14.476562 49.78125 14.726562 50 14.726562 C 50.121094 14.714844 50.238281 14.6875 50.351562 14.640625 C 50.429688 14.625 50.511719 14.617188 50.59375 14.621094 C 50.96875 14.621094 51.15625 14.789062 51.15625 15.128906 C 51.15625 15.46875 50.914062 15.636719 50.425781 15.636719 C 50.234375 15.632812 50.042969 15.617188 49.851562 15.59375 C 49.507812 15.550781 49.164062 15.523438 48.820312 15.519531 C 48.617188 15.515625 48.414062 15.527344 48.210938 15.546875 C 47.789062 15.609375 47.523438 15.636719 47.421875 15.636719 C 47.257812 15.644531 47.09375 15.589844 46.96875 15.480469 C 46.851562 15.382812 46.78125 15.238281 46.785156 15.085938 C 46.785156 14.957031 46.84375 14.835938 46.945312 14.757812 C 47.046875 14.667969 47.179688 14.621094 47.316406 14.621094 C 47.453125 14.625 47.585938 14.652344 47.710938 14.695312 C 47.792969 14.726562 47.882812 14.742188 47.96875 14.742188 C 48.273438 14.742188 48.429688 14.417969 48.441406 13.769531 C 48.441406 13.648438 48.449219 13.414062 48.46875 13.066406 L 48.46875 11.617188 C 48.46875 10.601562 48.367188 9.917969 48.164062 9.570312 C 47.871094 9.050781 47.351562 8.792969 46.613281 8.792969 C 45.808594 8.792969 45.226562 9.0625 44.859375 9.597656 C 44.609375 9.96875 44.476562 10.5625 44.464844 11.378906 L 44.464844 12.453125 C 44.457031 12.554688 44.4375 12.65625 44.40625 12.753906 L 44.40625 13.039062 C 44.40625 13.605469 44.410156 13.933594 44.421875 14.023438 C 44.472656 14.511719 44.625 14.757812 44.871094 14.757812 C 44.992188 14.75 45.109375 14.726562 45.222656 14.6875 C 45.332031 14.652344 45.445312 14.628906 45.558594 14.621094 C 45.890625 14.621094 46.058594 14.78125 46.058594 15.097656 C 46.058594 15.457031 45.832031 15.636719 45.386719 15.636719 C 45.242188 15.636719 45.03125 15.625 44.746094 15.59375 C 44.414062 15.558594 44.082031 15.539062 43.75 15.535156 C 43.578125 15.535156 43.339844 15.546875 43.035156 15.578125 C 42.625 15.617188 42.367188 15.636719 42.253906 15.636719 C 41.835938 15.636719 41.628906 15.453125 41.628906 15.085938 C 41.628906 14.777344 41.824219 14.621094 42.214844 14.621094 C 42.316406 14.617188 42.414062 14.628906 42.507812 14.664062 C 42.628906 14.695312 42.753906 14.71875 42.878906 14.726562 C 43.042969 14.726562 43.15625 14.574219 43.210938 14.269531 C 43.289062 13.652344 43.320312 13.03125 43.3125 12.40625 L 43.3125 9.730469 C 43.3125 8.238281 43.28125 7.292969 43.21875 6.898438 C 43.160156 6.507812 43.019531 6.308594 42.796875 6.308594 C 42.6875 6.3125 42.582031 6.328125 42.476562 6.355469 C 42.367188 6.378906 42.257812 6.394531 42.144531 6.398438 C 41.800781 6.398438 41.625 6.238281 41.625 5.921875 C 41.628906 5.78125 41.695312 5.648438 41.808594 5.5625 C 41.933594 5.460938 42.089844 5.410156 42.25 5.414062 C 42.300781 5.414062 42.472656 5.425781 42.765625 5.457031 C 42.972656 5.476562 43.179688 5.488281 43.386719 5.488281 C 43.515625 5.484375 43.640625 5.472656 43.765625 5.449219 C 43.882812 5.429688 44 5.417969 44.117188 5.414062 C 44.347656 5.414062 44.464844 5.578125 44.464844 5.90625 Z M 58.648438 11.171875 C 58.667969 11.402344 58.644531 11.640625 58.574219 11.863281 C 58.523438 11.949219 58.375 11.988281 58.132812 11.988281 L 53.292969 11.988281 C 53.203125 11.980469 53.113281 12 53.035156 12.042969 C 52.992188 12.089844 52.96875 12.152344 52.976562 12.214844 C 52.953125 12.90625 53.199219 13.578125 53.660156 14.09375 C 54.085938 14.582031 54.710938 14.855469 55.363281 14.84375 C 55.796875 14.847656 56.226562 14.722656 56.585938 14.488281 C 56.933594 14.277344 57.191406 13.953125 57.308594 13.574219 L 57.445312 13.140625 C 57.5 12.914062 57.714844 12.761719 57.949219 12.78125 C 58.324219 12.78125 58.511719 12.972656 58.511719 13.351562 C 58.511719 14 58.179688 14.574219 57.511719 15.078125 C 56.859375 15.574219 56.058594 15.839844 55.234375 15.832031 C 54.175781 15.832031 53.328125 15.480469 52.703125 14.777344 C 52.074219 14.074219 51.761719 13.128906 51.761719 11.945312 C 51.761719 10.730469 52.09375 9.742188 52.761719 8.984375 C 53.410156 8.234375 54.371094 7.816406 55.371094 7.847656 C 56.253906 7.820312 57.109375 8.160156 57.722656 8.785156 C 58.34375 9.425781 58.679688 10.285156 58.648438 11.171875 Z M 53.140625 10.792969 C 53.140625 10.933594 53.253906 11.003906 53.476562 11.003906 L 57.113281 11.003906 C 57.328125 11.003906 57.433594 10.933594 57.433594 10.792969 C 57.4375 10.269531 57.214844 9.773438 56.824219 9.417969 C 56.449219 9.042969 55.933594 8.832031 55.394531 8.835938 C 54.820312 8.839844 54.265625 9.054688 53.84375 9.441406 C 53.375 9.84375 53.140625 10.296875 53.140625 10.792969 Z M 62.0625 8.527344 L 62.0625 8.941406 C 62.527344 8.242188 63.324219 7.832031 64.171875 7.847656 C 64.800781 7.820312 65.414062 8.03125 65.890625 8.441406 C 66.328125 8.824219 66.570312 9.378906 66.550781 9.957031 C 66.570312 10.339844 66.453125 10.71875 66.21875 11.027344 C 66.007812 11.292969 65.679688 11.445312 65.339844 11.4375 C 65.121094 11.441406 64.910156 11.367188 64.746094 11.226562 C 64.589844 11.101562 64.503906 10.914062 64.503906 10.71875 C 64.503906 10.558594 64.570312 10.40625 64.6875 10.292969 C 64.792969 10.175781 64.949219 10.105469 65.109375 10.105469 C 65.175781 10.113281 65.242188 10.128906 65.308594 10.152344 C 65.363281 10.050781 65.394531 9.9375 65.398438 9.820312 C 65.398438 9.53125 65.253906 9.257812 65.011719 9.089844 C 64.734375 8.882812 64.394531 8.777344 64.046875 8.789062 C 63.257812 8.789062 62.734375 9.140625 62.46875 9.835938 C 62.308594 10.265625 62.226562 10.914062 62.226562 11.78125 L 62.226562 12.765625 C 62.226562 13.433594 62.234375 13.808594 62.242188 13.886719 C 62.292969 14.457031 62.453125 14.738281 62.71875 14.738281 C 62.855469 14.738281 62.996094 14.722656 63.128906 14.6875 C 63.226562 14.664062 63.324219 14.652344 63.421875 14.648438 C 63.75 14.648438 63.910156 14.808594 63.910156 15.121094 C 63.910156 15.464844 63.703125 15.636719 63.289062 15.636719 L 63.230469 15.636719 C 63 15.632812 62.769531 15.613281 62.539062 15.585938 C 62.308594 15.554688 62.078125 15.539062 61.847656 15.53125 C 61.445312 15.53125 61.125 15.542969 60.894531 15.5625 L 60.042969 15.636719 C 59.628906 15.636719 59.421875 15.460938 59.421875 15.113281 C 59.421875 14.804688 59.617188 14.648438 60.003906 14.648438 C 60.082031 14.648438 60.15625 14.652344 60.234375 14.664062 L 60.464844 14.710938 C 60.535156 14.726562 60.605469 14.734375 60.675781 14.738281 C 60.933594 14.738281 61.070312 14.511719 61.089844 14.050781 L 61.089844 13.289062 L 61.046875 9.894531 C 61.015625 9.308594 60.863281 9.015625 60.589844 9.015625 C 60.476562 9.015625 60.367188 9.03125 60.257812 9.050781 C 60.144531 9.074219 60.035156 9.085938 59.921875 9.089844 C 59.589844 9.089844 59.421875 8.933594 59.421875 8.617188 C 59.421875 8.273438 59.640625 8.101562 60.074219 8.101562 C 60.226562 8.105469 60.378906 8.117188 60.53125 8.140625 C 60.679688 8.160156 60.832031 8.171875 60.984375 8.175781 C 61.117188 8.171875 61.25 8.160156 61.378906 8.140625 C 61.472656 8.113281 61.570312 8.101562 61.667969 8.101562 C 61.929688 8.101562 62.0625 8.246094 62.0625 8.527344 Z M 70.410156 7.847656 C 71.019531 7.828125 71.617188 8.011719 72.105469 8.371094 L 72.105469 8.3125 C 72.105469 7.945312 72.265625 7.757812 72.589844 7.757812 C 72.921875 7.757812 73.089844 7.917969 73.089844 8.238281 C 73.089844 8.296875 73.082031 8.445312 73.066406 8.6875 C 73.03125 8.882812 73.015625 9.082031 73.015625 9.285156 C 73.015625 9.402344 73.027344 9.578125 73.050781 9.808594 C 73.078125 10.035156 73.089844 10.210938 73.089844 10.332031 C 73.089844 10.710938 72.925781 10.898438 72.597656 10.898438 C 72.464844 10.914062 72.328125 10.871094 72.234375 10.777344 C 72.136719 10.683594 72.089844 10.550781 72.105469 10.421875 L 72.105469 9.925781 C 72.09375 9.628906 71.917969 9.371094 71.578125 9.15625 C 71.21875 8.9375 70.804688 8.824219 70.382812 8.835938 C 69.960938 8.820312 69.550781 8.945312 69.207031 9.1875 C 68.914062 9.382812 68.738281 9.710938 68.738281 10.0625 C 68.738281 10.699219 69.183594 11.078125 70.074219 11.199219 L 70.957031 11.316406 C 72.683594 11.546875 73.546875 12.25 73.546875 13.425781 C 73.5625 14.101562 73.253906 14.75 72.714844 15.167969 C 72.160156 15.609375 71.433594 15.832031 70.535156 15.832031 C 69.75 15.847656 68.980469 15.601562 68.359375 15.128906 L 68.359375 15.414062 C 68.359375 15.773438 68.1875 15.953125 67.839844 15.953125 C 67.46875 15.953125 67.28125 15.746094 67.28125 15.339844 C 67.324219 15.082031 67.355469 14.820312 67.371094 14.5625 C 67.390625 14.421875 67.402344 14.285156 67.402344 14.144531 C 67.402344 13.917969 67.382812 13.691406 67.339844 13.472656 C 67.304688 13.308594 67.285156 13.144531 67.28125 12.976562 C 67.28125 12.628906 67.441406 12.453125 67.765625 12.453125 C 67.976562 12.453125 68.113281 12.503906 68.167969 12.605469 C 68.246094 12.859375 68.28125 13.128906 68.265625 13.394531 C 68.277344 13.824219 68.503906 14.171875 68.949219 14.441406 C 69.464844 14.730469 70.054688 14.867188 70.648438 14.84375 C 71.089844 14.863281 71.523438 14.730469 71.875 14.472656 C 72.183594 14.253906 72.363281 13.902344 72.363281 13.53125 C 72.363281 12.851562 71.816406 12.457031 70.722656 12.347656 C 69.679688 12.238281 68.886719 12.039062 68.339844 11.742188 C 67.796875 11.449219 67.523438 10.933594 67.523438 10.195312 C 67.503906 9.539062 67.800781 8.910156 68.324219 8.5 C 68.859375 8.066406 69.554688 7.847656 70.410156 7.847656 Z M 79.097656 10.644531 C 79.097656 10.246094 79.351562 10.015625 79.855469 9.957031 C 79.8125 9.621094 79.628906 9.324219 79.34375 9.132812 C 79.011719 8.921875 78.621094 8.820312 78.226562 8.835938 C 77.558594 8.820312 76.925781 9.125 76.535156 9.65625 C 76.109375 10.207031 75.894531 10.933594 75.894531 11.839844 C 75.894531 12.777344 76.097656 13.511719 76.496094 14.042969 C 76.878906 14.570312 77.507812 14.871094 78.164062 14.84375 C 78.582031 14.851562 78.992188 14.722656 79.324219 14.472656 C 79.664062 14.210938 79.902344 13.847656 80.003906 13.441406 C 80.105469 13.089844 80.164062 12.890625 80.183594 12.839844 C 80.273438 12.65625 80.464844 12.539062 80.671875 12.542969 C 80.832031 12.539062 80.984375 12.597656 81.097656 12.707031 C 81.210938 12.816406 81.269531 12.96875 81.265625 13.125 C 81.25 13.4375 81.167969 13.742188 81.023438 14.023438 C 80.882812 14.339844 80.6875 14.632812 80.445312 14.890625 C 79.847656 15.519531 79 15.863281 78.125 15.832031 C 77.171875 15.863281 76.253906 15.46875 75.632812 14.753906 C 75 14.039062 74.683594 13.097656 74.683594 11.929688 C 74.683594 10.695312 75.007812 9.703125 75.660156 8.964844 C 76.3125 8.222656 77.179688 7.851562 78.261719 7.847656 C 78.992188 7.824219 79.707031 8.054688 80.28125 8.5 C 80.796875 8.894531 81.09375 9.507812 81.085938 10.152344 C 81.097656 10.484375 80.988281 10.808594 80.773438 11.0625 C 80.578125 11.296875 80.285156 11.429688 79.976562 11.421875 C 79.746094 11.429688 79.519531 11.347656 79.347656 11.199219 C 79.183594 11.058594 79.09375 10.855469 79.097656 10.644531 Z M 88.941406 15.769531 C 88.113281 15.769531 87.601562 15.417969 87.410156 14.710938 C 86.894531 15.457031 86.085938 15.832031 84.984375 15.832031 C 84.164062 15.832031 83.507812 15.632812 83.019531 15.234375 C 82.53125 14.84375 82.257812 14.25 82.28125 13.632812 C 82.246094 12.871094 82.667969 12.15625 83.359375 11.808594 C 83.582031 11.683594 83.816406 11.585938 84.066406 11.519531 C 84.261719 11.472656 84.660156 11.417969 85.253906 11.347656 C 86.105469 11.257812 86.660156 11.132812 86.917969 10.972656 C 87.171875 10.8125 87.304688 10.519531 87.304688 10.089844 C 87.320312 9.722656 87.160156 9.363281 86.871094 9.128906 C 86.523438 8.875 86.097656 8.75 85.664062 8.777344 C 85.210938 8.777344 84.769531 8.90625 84.390625 9.148438 C 84.238281 9.25 84.164062 9.355469 84.164062 9.464844 C 84.164062 9.503906 84.210938 9.554688 84.300781 9.613281 C 84.453125 9.738281 84.53125 9.929688 84.511719 10.121094 C 84.515625 10.3125 84.4375 10.492188 84.292969 10.617188 C 84.140625 10.746094 83.941406 10.816406 83.738281 10.808594 C 83.492188 10.816406 83.25 10.71875 83.078125 10.542969 C 82.902344 10.367188 82.808594 10.128906 82.8125 9.882812 C 82.8125 9.324219 83.09375 8.847656 83.65625 8.449219 C 84.253906 8.039062 84.96875 7.828125 85.695312 7.851562 C 87.535156 7.851562 88.457031 8.71875 88.457031 10.460938 L 88.457031 13.472656 C 88.449219 13.757812 88.457031 14.042969 88.488281 14.324219 C 88.546875 14.671875 88.71875 14.847656 89.003906 14.847656 C 89.359375 14.847656 89.535156 14.53125 89.535156 13.894531 L 89.535156 13.167969 C 89.535156 12.851562 89.6875 12.695312 89.996094 12.695312 C 90.324219 12.695312 90.492188 12.933594 90.492188 13.410156 L 90.492188 14.339844 C 90.46875 15.292969 89.953125 15.773438 88.941406 15.773438 Z M 87.242188 12.796875 L 87.242188 11.734375 C 87.042969 11.921875 86.800781 12.066406 86.539062 12.152344 C 86.109375 12.265625 85.664062 12.335938 85.21875 12.363281 C 84.070312 12.472656 83.496094 12.890625 83.496094 13.617188 C 83.480469 13.964844 83.636719 14.300781 83.914062 14.515625 C 84.238281 14.75 84.640625 14.867188 85.042969 14.84375 C 85.722656 14.84375 86.253906 14.664062 86.644531 14.300781 C 87.046875 13.902344 87.265625 13.359375 87.242188 12.796875 Z M 93.296875 8.558594 L 93.296875 8.984375 C 93.871094 8.242188 94.773438 7.820312 95.722656 7.847656 C 96.265625 7.847656 96.800781 7.988281 97.269531 8.261719 C 97.707031 8.480469 98.054688 8.84375 98.257812 9.285156 C 98.414062 9.710938 98.484375 10.160156 98.46875 10.613281 L 98.46875 13.453125 C 98.46875 13.882812 98.472656 14.136719 98.484375 14.21875 C 98.535156 14.554688 98.671875 14.726562 98.894531 14.726562 C 99.011719 14.722656 99.132812 14.710938 99.25 14.6875 C 99.351562 14.667969 99.457031 14.65625 99.558594 14.652344 C 99.6875 14.648438 99.808594 14.699219 99.902344 14.785156 C 99.996094 14.871094 100.046875 14.988281 100.046875 15.113281 C 100.046875 15.261719 99.980469 15.398438 99.863281 15.488281 C 99.738281 15.589844 99.582031 15.640625 99.421875 15.636719 C 99.191406 15.628906 98.957031 15.609375 98.726562 15.578125 C 98.425781 15.539062 98.121094 15.519531 97.816406 15.515625 C 97.597656 15.515625 97.378906 15.523438 97.164062 15.546875 C 96.65625 15.605469 96.390625 15.636719 96.359375 15.636719 C 95.957031 15.636719 95.753906 15.460938 95.753906 15.113281 C 95.753906 14.804688 95.929688 14.648438 96.277344 14.648438 C 96.371094 14.652344 96.464844 14.660156 96.558594 14.679688 C 96.679688 14.710938 96.800781 14.730469 96.925781 14.742188 C 97.175781 14.742188 97.308594 14.46875 97.328125 13.917969 L 97.328125 11.109375 C 97.34375 10.742188 97.316406 10.375 97.253906 10.015625 C 97.179688 9.660156 96.96875 9.34375 96.664062 9.132812 C 96.332031 8.90625 95.9375 8.785156 95.53125 8.789062 C 94.726562 8.789062 94.144531 9.074219 93.792969 9.644531 C 93.550781 10.03125 93.429688 10.695312 93.429688 11.632812 L 93.429688 13.621094 C 93.414062 13.921875 93.445312 14.222656 93.523438 14.515625 C 93.5625 14.664062 93.703125 14.761719 93.855469 14.753906 C 93.96875 14.75 94.082031 14.734375 94.191406 14.703125 C 94.304688 14.671875 94.421875 14.65625 94.539062 14.652344 C 94.851562 14.652344 95.007812 14.816406 95.007812 15.152344 C 95.007812 15.476562 94.804688 15.636719 94.402344 15.636719 C 94.320312 15.636719 94.058594 15.605469 93.613281 15.546875 C 93.367188 15.515625 93.117188 15.5 92.871094 15.503906 C 92.585938 15.507812 92.300781 15.527344 92.019531 15.5625 C 91.574219 15.613281 91.324219 15.636719 91.261719 15.636719 C 90.835938 15.636719 90.625 15.46875 90.625 15.128906 C 90.605469 14.996094 90.652344 14.859375 90.75 14.765625 C 90.847656 14.671875 90.984375 14.628906 91.121094 14.648438 C 91.214844 14.65625 91.3125 14.671875 91.40625 14.695312 C 91.539062 14.722656 91.675781 14.738281 91.816406 14.738281 C 92.125 14.738281 92.285156 14.449219 92.292969 13.871094 L 92.292969 9.882812 C 92.296875 9.644531 92.25 9.410156 92.164062 9.1875 C 92.097656 9.0625 91.960938 8.988281 91.816406 9 C 91.707031 9.003906 91.601562 9.019531 91.5 9.042969 C 91.394531 9.070312 91.289062 9.085938 91.183594 9.089844 C 90.8125 9.089844 90.625 8.925781 90.625 8.605469 C 90.625 8.269531 90.855469 8.101562 91.308594 8.101562 C 91.359375 8.101562 91.410156 8.105469 91.460938 8.117188 L 92.023438 8.179688 C 92.164062 8.179688 92.304688 8.167969 92.445312 8.140625 C 92.710938 8.117188 92.84375 8.101562 92.855469 8.101562 C 93.148438 8.101562 93.296875 8.253906 93.296875 8.558594 Z M 93.296875 8.558594 "/>
<path style=" stroke:none;fill-rule:nonzero;fill:rgb(12.941176%,19.607843%,35.686275%);fill-opacity:1;" d="M 4.652344 10.503906 C 4.652344 10.253906 4.753906 10.015625 4.933594 9.839844 C 5.113281 9.664062 5.355469 9.566406 5.605469 9.566406 L 7.1875 9.574219 C 7.710938 9.574219 8.136719 9.992188 8.136719 10.507812 L 8.136719 16.398438 C 8.316406 16.347656 8.542969 16.292969 8.792969 16.234375 C 9.152344 16.152344 9.40625 15.835938 9.40625 15.476562 L 9.40625 8.167969 C 9.40625 7.652344 9.832031 7.230469 10.355469 7.230469 L 11.941406 7.230469 C 12.464844 7.230469 12.890625 7.652344 12.890625 8.167969 L 12.890625 14.949219 C 12.890625 14.949219 13.289062 14.792969 13.675781 14.632812 C 13.96875 14.507812 14.160156 14.226562 14.160156 13.910156 L 14.160156 5.828125 C 14.160156 5.308594 14.585938 4.890625 15.109375 4.890625 L 16.691406 4.890625 C 17.21875 4.890625 17.640625 5.308594 17.640625 5.828125 L 17.640625 12.484375 C 19.015625 11.503906 20.40625 10.324219 21.511719 8.90625 C 21.835938 8.488281 21.929688 7.9375 21.753906 7.4375 C 20.359375 3.484375 16.816406 0.652344 12.601562 0.121094 C 8.390625 -0.40625 4.234375 1.460938 1.878906 4.941406 C -0.476562 8.421875 -0.628906 12.917969 1.484375 16.550781 C 1.761719 17.015625 2.289062 17.285156 2.835938 17.238281 C 3.136719 17.210938 3.507812 17.175781 3.953125 17.125 C 4.351562 17.078125 4.652344 16.746094 4.652344 16.351562 L 4.652344 10.503906 "/>
<path style=" stroke:none;fill-rule:nonzero;fill:rgb(59.215686%,58.823529%,58.431373%);fill-opacity:1;" d="M 4.621094 19.949219 C 8.023438 22.390625 12.53125 22.742188 16.28125 20.859375 C 20.035156 18.976562 22.394531 15.179688 22.394531 11.03125 C 22.394531 10.777344 22.382812 10.523438 22.367188 10.273438 C 18.277344 16.285156 10.726562 19.09375 4.621094 19.949219 "/>
</g>
</svg>
